<svg width="19" height="23" viewBox="0 0 19 23" fill="none" xmlns="http://www.w3.org/2000/svg">
<path d="M8.94178 6.0882C9.03578 6.25153 9.11679 6.42153 9.18478 6.5982C10.5698 5.8612 12.1008 5.7642 13.4328 6.2762C15.5628 7.0962 16.8888 9.3582 16.3048 12.2802C16.2761 12.4242 16.216 12.56 16.1289 12.6782C16.0418 12.7963 15.9297 12.8938 15.8007 12.9638C15.6717 13.0338 15.5288 13.0745 15.3822 13.083C15.2357 13.0915 15.0891 13.0677 14.9528 13.0132L10.2288 11.1232C10.8638 13.3922 10.9288 15.7012 10.8218 17.5182C10.744 18.7965 10.5682 20.0669 10.2958 21.3182C10.2401 21.5348 10.1149 21.7271 9.93923 21.8655C9.7636 22.0039 9.54736 22.0807 9.32378 22.0842H6.82378C6.65345 22.0842 6.48593 22.0407 6.33713 21.9578C6.18832 21.8749 6.06316 21.7553 5.97352 21.6105C5.88387 21.4657 5.8327 21.3003 5.82487 21.1302C5.81705 20.96 5.85281 20.7907 5.92878 20.6382C6.38278 19.7282 6.68278 18.7182 6.91278 17.7322C7.29278 16.1032 7.50878 14.0322 7.02078 11.9522L1.60379 15.4322C1.46263 15.5227 1.30098 15.5762 1.13372 15.5879C0.966456 15.5996 0.798941 15.569 0.646583 15.499C0.494225 15.429 0.361915 15.3218 0.261822 15.1873C0.16173 15.0528 0.0970684 14.8952 0.0737848 14.7292C-0.302215 12.0362 0.789785 9.6382 2.64378 8.3772C2.72912 8.3192 2.81578 8.26353 2.90378 8.2102L0.987785 7.5262C0.828909 7.46951 0.686955 7.37356 0.575132 7.24726C0.46331 7.12096 0.385254 6.96843 0.348227 6.80386C0.311201 6.63928 0.316408 6.46802 0.363363 6.306C0.410319 6.14398 0.497497 5.99647 0.616785 5.8772C2.36979 4.1242 4.76178 3.6342 6.63978 4.2602C7.58578 4.5762 8.42678 5.1862 8.94178 6.0882Z" fill="#8C8C8C"/>
<path d="M13 3H18V4H13V3Z" fill="#8C8C8C"/>
<path d="M15 1H16V6H15V1Z" fill="#8C8C8C"/>
<path d="M15.5 7C13.5647 7 12 5.43529 12 3.5C12 1.56471 13.5647 0 15.5 0C17.4353 0 19 1.56471 19 3.5C19 5.43529 17.4353 7 15.5 7ZM15.5 0.411765C13.7912 0.411765 12.4118 1.79118 12.4118 3.5C12.4118 5.20882 13.7912 6.58824 15.5 6.58824C17.2088 6.58824 18.5882 5.20882 18.5882 3.5C18.5882 1.79118 17.2088 0.411765 15.5 0.411765Z" fill="#8C8C8C"/>
</svg>
