<svg width="90" height="90" viewBox="0 0 90 90" fill="none" xmlns="http://www.w3.org/2000/svg">
<g opacity="0.5">
<path d="M13.9468 27.0003C16.938 27.0003 19.7773 26.9639 22.6155 27.0121C24.9524 27.0521 26.6987 28.7202 26.9858 31.0584C27.2364 33.1086 25.8279 35.1564 23.7475 35.7889C23.2321 35.9464 22.7073 35.9511 22.1825 35.9511C16.4143 35.9558 10.6466 35.9558 4.87917 35.9511C1.82918 35.9452 0.0205922 34.1454 0.00882523 31.1172C-0.00294174 25.3177 -0.00294174 19.5182 0.00882523 13.7188C0.0170621 10.9868 1.90448 8.99536 4.44968 8.96597C7.01723 8.93658 8.93996 10.9644 8.96937 13.7505C8.98114 14.8403 8.96937 15.9288 8.96937 17.0186V17.9591C9.73893 17.0386 10.339 16.2862 10.9698 15.5644C18.8372 6.64423 28.6696 1.45058 40.5166 0.23622C64.0211 -2.17134 85.3923 14.0809 89.3495 37.276C90.0596 41.4008 90.1891 45.6045 89.7343 49.7652C89.4484 52.3784 87.2997 54.1347 84.6886 53.8879C82.2517 53.6528 80.5702 51.4921 80.8055 48.8999C82.5306 30.2978 71.0201 14.1949 52.8908 9.84765C38.182 6.32095 21.7412 13.3743 14.2033 26.4537C14.148 26.5795 14.0927 26.7053 13.9468 27.0003Z" fill="#1E1E1E"/>
<path d="M45.0526 89.9997C25.663 89.647 9.19275 78.0924 2.79152 60.473C1.78427 57.6986 2.82564 55.1441 5.32965 54.2425C7.81365 53.3502 10.1647 54.5951 11.2202 57.3424C15.574 68.669 23.6085 76.0621 35.2142 79.5606C39.115 80.7362 43.1251 81.1277 47.1942 80.8737C48.0014 80.8232 48.8098 80.7562 49.6158 80.7703C52.0045 80.822 53.8425 82.623 54.0049 85.0235C54.1543 87.2571 52.4116 89.3272 50.1218 89.6587C48.3709 89.9185 46.6176 89.9479 45.0526 89.9997Z" fill="#1E1E1E"/>
<path d="M40.5353 35.8834C40.5353 32.8622 40.5011 29.8398 40.547 26.8186C40.5812 24.5415 42.2391 22.7593 44.4866 22.4525C46.5929 22.1645 48.6851 23.5646 49.3287 25.6783C49.517 26.2978 49.4935 26.9279 49.4946 27.5592C49.4946 32.4084 49.5111 37.2564 49.4805 42.1056C49.4805 42.798 49.6935 43.273 50.1759 43.7514C53.9971 47.5352 57.8017 51.3362 61.5899 55.1544C64.1904 57.7912 63.0796 61.9163 59.5601 62.7815C58.0704 63.1483 56.6419 62.8755 55.5405 61.7881C50.9122 57.2199 46.3097 52.6266 41.7331 48.0081C40.8542 47.1253 40.5129 45.9944 40.5211 44.7413C40.5411 41.7894 40.527 38.8387 40.527 35.8869L40.5353 35.8834Z" fill="#1E1E1E"/>
<path d="M63.1161 80.9333C63.0926 79.666 63.5526 78.601 64.434 77.7111C65.4248 76.713 66.3979 75.6973 67.4252 74.7392C67.8817 74.3125 67.9452 74.0621 67.4463 73.606C66.4614 72.7067 65.5412 71.7357 64.6022 70.7846C62.6913 68.8497 62.6019 66.1118 64.3963 64.2943C66.2308 62.4322 68.9666 62.5016 70.9682 64.4707C71.9448 65.4323 72.9262 66.3904 73.8676 67.3861C74.2206 67.767 74.4335 67.747 74.7818 67.3861C75.7526 66.3692 76.7528 65.3806 77.7601 64.399C79.7522 62.4569 82.441 62.4687 84.4355 64.4142C86.1052 66.0424 85.9911 68.8814 84.1672 70.7529C83.2599 71.6839 82.3739 72.6432 81.3937 73.4943C80.7418 74.0598 80.9077 74.3748 81.442 74.8662C82.3974 75.7467 83.3023 76.6848 84.2048 77.6194C86.0452 79.5273 86.0876 82.2852 84.3225 84.038C82.5163 85.8342 79.7146 85.8013 77.8024 83.9427C76.8199 82.9882 75.8373 82.0289 74.8995 81.0309C74.4971 80.6018 74.2559 80.5606 73.8311 81.0144C72.8191 82.0877 71.7848 83.1457 70.6928 84.1367C69.2255 85.4698 67.491 85.7484 65.7013 84.942C64.0327 84.1826 63.1761 82.7825 63.1161 80.9333Z" fill="#1E1E1E"/>
</g>
</svg>
