<svg width="18" height="18" viewBox="0 0 18 18" fill="none" xmlns="http://www.w3.org/2000/svg">
<path d="M8.99996 9.38369e-05C7.21994 9.38369e-05 5.47989 0.527932 3.99985 1.51686C2.51982 2.50579 1.36627 3.91139 0.685085 5.55591C0.00389957 7.20044 -0.17433 9.01003 0.172936 10.7558C0.520201 12.5017 1.37736 14.1053 2.63603 15.364C3.8947 16.6226 5.49833 17.4798 7.24415 17.8271C8.98997 18.1743 10.7996 17.9961 12.4441 17.3149C14.0886 16.6337 15.4942 15.4802 16.4831 14.0002C17.4721 12.5201 17.9999 10.7801 17.9999 9.00004C18.0053 7.81664 17.7762 6.64389 17.3259 5.54952C16.8755 4.45515 16.2128 3.46085 15.376 2.62404C14.5392 1.78724 13.5449 1.12451 12.4505 0.674143C11.3561 0.223771 10.1834 -0.0053223 8.99996 9.38369e-05ZM13.3772 5.19552L10.6363 10.6364L5.19543 13.3773C5.11558 13.405 5.02954 13.4097 4.94715 13.3908C4.86477 13.3719 4.78937 13.3302 4.7296 13.2704C4.66983 13.2106 4.62811 13.1352 4.6092 13.0528C4.5903 12.9705 4.59498 12.8844 4.62271 12.8046L7.3636 7.36369L12.8045 4.6228C12.8843 4.59507 12.9704 4.59038 13.0528 4.60929C13.1351 4.62819 13.2105 4.66992 13.2703 4.72969C13.3301 4.78946 13.3718 4.86486 13.3907 4.94724C13.4096 5.02963 13.4049 5.11567 13.3772 5.19552ZM8.99996 8.18187C8.83814 8.18187 8.67995 8.22985 8.5454 8.31976C8.41085 8.40966 8.30599 8.53744 8.24406 8.68694C8.18213 8.83644 8.16593 9.00095 8.1975 9.15966C8.22907 9.31837 8.307 9.46416 8.42142 9.57858C8.53584 9.69301 8.68163 9.77093 8.84034 9.8025C8.99905 9.83407 9.16356 9.81787 9.31306 9.75594C9.46256 9.69402 9.59035 9.58915 9.68025 9.4546C9.77015 9.32005 9.81814 9.16187 9.81814 9.00004C9.81814 8.78305 9.73194 8.57494 9.5785 8.42151C9.42506 8.26807 9.21695 8.18187 8.99996 8.18187Z" fill="#8C8C8C"/>
</svg>
