<svg width="18" height="18" viewBox="0 0 18 18" fill="none" xmlns="http://www.w3.org/2000/svg">
<path d="M1 5.29499H14L12.4 6.56549C12.2949 6.64891 12.2064 6.75343 12.1395 6.87306C12.0726 6.9927 12.0286 7.12512 12.0101 7.26276C11.9915 7.4004 11.9987 7.54057 12.0313 7.67525C12.0639 7.80994 12.1212 7.93651 12.2 8.04774C12.2931 8.17923 12.4139 8.28596 12.5528 8.35947C12.6916 8.43297 12.8448 8.47124 13 8.47124C13.2164 8.47124 13.4269 8.39694 13.6 8.25949L17.6 5.08324C17.7223 4.98443 17.8214 4.85708 17.8897 4.71109C17.9579 4.5651 17.9934 4.40442 17.9934 4.24153C17.9934 4.07865 17.9579 3.91796 17.8897 3.77197C17.8214 3.62598 17.7223 3.49863 17.6 3.39982L13.74 0.223572C13.5305 0.0508809 13.2647 -0.0266152 13.0013 0.00813182C12.7378 0.0428788 12.4981 0.187023 12.335 0.408853C12.1719 0.630684 12.0987 0.91203 12.1315 1.191C12.1643 1.46997 12.3005 1.72371 12.51 1.8964L14.08 3.17749H1C0.734784 3.17749 0.48043 3.28903 0.292893 3.48759C0.105357 3.68614 0 3.95544 0 4.23624C0 4.51704 0.105357 4.78633 0.292893 4.98489C0.48043 5.18344 0.734784 5.29499 1 5.29499ZM17 12.7062H4L5.6 11.4357C5.81217 11.2673 5.95244 11.0164 5.98995 10.7385C6.02746 10.4605 5.95913 10.1781 5.8 9.95349C5.64087 9.72885 5.40397 9.58035 5.14142 9.54063C4.87887 9.50092 4.61217 9.57326 4.4 9.74174L0.4 12.918C0.277693 13.0168 0.178568 13.1442 0.110337 13.2901C0.0421059 13.4361 0.00660944 13.5968 0.00660944 13.7597C0.00660944 13.9226 0.0421059 14.0833 0.110337 14.2293C0.178568 14.3753 0.277693 14.5026 0.4 14.6014L4.26 17.7777C4.43455 17.9211 4.64905 17.9993 4.87 18C5.02272 17.9996 5.17332 17.9622 5.31026 17.8906C5.4472 17.819 5.56684 17.7152 5.66 17.5871C5.82239 17.3664 5.89567 17.0866 5.86381 16.8088C5.83196 16.5311 5.69757 16.278 5.49 16.1048L3.92 14.8237H17C17.2652 14.8237 17.5196 14.7122 17.7071 14.5136C17.8946 14.3151 18 14.0458 18 13.765C18 13.4842 17.8946 13.2149 17.7071 13.0163C17.5196 12.8178 17.2652 12.7062 17 12.7062Z" fill="#8C8C8C"/>
</svg>
