<svg width="18" height="18" viewBox="0 0 18 18" fill="none" xmlns="http://www.w3.org/2000/svg">
<path fill-rule="evenodd" clip-rule="evenodd" d="M6.00518 4.98779H11.9949C15.0322 4.98779 16.5509 4.98779 17.404 5.87594C18.257 6.7641 18.0563 8.13629 17.6549 10.8806L17.2742 13.483C16.9594 15.6351 16.8021 16.7112 15.9946 17.3556C15.1871 18 13.9961 18 11.6142 18H6.38586C4.00395 18 2.81299 18 2.00552 17.3556C1.19804 16.7112 1.04064 15.6351 0.725836 13.483L0.345161 10.8806C-0.0562678 8.13629 -0.256978 6.7641 0.596091 5.87594C1.44916 4.98779 2.96784 4.98779 6.00518 4.98779ZM5.40003 14.4001C5.40003 14.0274 5.73582 13.7251 6.15003 13.7251H11.8501C12.2643 13.7251 12.6001 14.0274 12.6001 14.4001C12.6001 14.7729 12.2643 15.0751 11.8501 15.0751H6.15003C5.73582 15.0751 5.40003 14.7729 5.40003 14.4001Z" fill="#8C8C8C"/>
<g opacity="0.4">
<path d="M5.85907 6.56361e-06H12.1411C12.3504 -4.74366e-05 12.5109 -8.33852e-05 12.6511 0.0136327C13.6481 0.111166 14.4641 0.710623 14.8103 1.51811H3.19C3.53607 0.710623 4.35215 0.111166 5.34919 0.0136327C5.48942 -8.33852e-05 5.64984 -4.74366e-05 5.85907 6.56361e-06Z" fill="#8C8C8C"/>
</g>
<g opacity="0.7">
<path d="M3.87965 2.4502C2.62809 2.4502 1.60184 3.20597 1.25936 4.20861C1.25222 4.22951 1.24538 4.25053 1.23883 4.27163C1.59717 4.16312 1.9701 4.09223 2.34763 4.04383C3.31996 3.91917 4.54878 3.91924 5.97621 3.91932H6.08281H12.1791C13.6065 3.91924 14.8354 3.91917 15.8077 4.04383C16.1852 4.09223 16.5582 4.16312 16.9165 4.27163C16.9099 4.25053 16.9031 4.22951 16.896 4.20861C16.5535 3.20597 15.5272 2.4502 14.2757 2.4502H3.87965Z" fill="#8C8C8C"/>
</g>
</svg>
