<svg width="18" height="18" viewBox="0 0 18 18" fill="none" xmlns="http://www.w3.org/2000/svg">
<path fill-rule="evenodd" clip-rule="evenodd" d="M0.46728 5.24047C5.36442e-08 6.09415 0 7.12394 0 9.18351V10.5525C0 14.0632 1.07288e-07 15.8187 1.05441 16.9093C2.10883 18 3.80588 18 7.2 18H10.8C14.1941 18 15.8912 18 16.9456 16.9093C18 15.8187 18 14.0632 18 10.5525V9.18351C18 7.12394 18 6.09415 17.5327 5.24047C17.0654 4.38679 16.2118 3.85696 14.5044 2.79731L12.7044 1.68018C10.8995 0.560061 9.99711 0 9 0C8.00289 0 7.10045 0.560061 5.29563 1.68018L3.49563 2.79732C1.78825 3.85696 0.93456 4.38679 0.46728 5.24047ZM8.325 14.4C8.325 14.7728 8.62722 15.075 9 15.075C9.37278 15.075 9.675 14.7728 9.675 14.4V11.7C9.675 11.3272 9.37278 11.025 9 11.025C8.62722 11.025 8.325 11.3272 8.325 11.7V14.4Z" fill="#8C8C8C"/>
</svg>
