<svg width="18" height="19" viewBox="0 0 18 19" fill="none" xmlns="http://www.w3.org/2000/svg">
<path d="M3.30365 0.00192373C3.56071 0.138584 3.67752 0.382068 3.76752 0.639027C3.85225 0.879625 3.91783 1.12793 3.99203 1.37237C4.22851 1.2463 4.45351 1.10916 4.69286 1.0057C4.86162 0.932074 5.04071 0.885162 5.22375 0.866635C5.47603 0.843057 5.62251 1.00233 5.58661 1.25737C5.55915 1.44003 5.50714 1.6181 5.43199 1.78668C5.32859 2.02054 5.19551 2.24093 5.0787 2.46036C5.33002 2.53831 5.58278 2.60472 5.8274 2.69662C5.97289 2.74999 6.11057 2.82282 6.2367 2.91316C6.51339 3.11286 6.51866 3.3626 6.23335 3.55171C6.03756 3.68163 5.81017 3.76777 5.58901 3.8539C5.41978 3.91105 5.24768 3.95924 5.07344 3.99826C5.19646 4.22876 5.32476 4.44385 5.42816 4.67194C5.50017 4.82972 5.55243 4.99588 5.58374 5.16661C5.63831 5.47409 5.44348 5.68389 5.14811 5.59969C4.8202 5.50345 4.51095 5.34321 4.19548 5.20655C4.12615 5.1706 4.05944 5.12975 3.99586 5.08432C3.91735 5.34369 3.85225 5.59295 3.7656 5.83306C3.71111 5.98532 3.63622 6.12941 3.543 6.26133C3.34386 6.53946 3.07722 6.55004 2.91063 6.25748C2.74404 5.96491 2.64351 5.6223 2.51809 5.30038C2.49738 5.23211 2.48138 5.1625 2.47021 5.09202C2.2366 5.21713 2.01592 5.34898 1.78374 5.45484C1.62628 5.52585 1.46066 5.57692 1.29067 5.6069C1.01302 5.65502 0.850263 5.50585 0.864624 5.22194C0.883773 4.84901 1.07525 4.54009 1.2519 4.22779C1.29259 4.1561 1.33663 4.08632 1.38354 4.00837C1.13078 3.93137 0.889037 3.87027 0.656384 3.78269C0.494237 3.72315 0.340668 3.64224 0.199696 3.54209C-0.0607215 3.35298 -0.0736473 3.09024 0.203525 2.93048C0.503676 2.75725 0.844518 2.65524 1.16908 2.52532C1.2372 2.50337 1.30679 2.48632 1.37732 2.47431C1.24807 2.2289 1.10829 2.00466 1.00967 1.7631C0.934316 1.57549 0.887205 1.37763 0.869889 1.17604C0.852656 0.979716 0.9843 0.846425 1.18009 0.866635C1.39213 0.888703 1.60003 0.9407 1.79763 1.0211C2.02693 1.11493 2.23852 1.25255 2.46303 1.3743C2.61718 0.879146 2.66505 0.337319 3.127 0L3.30365 0.00192373ZM3.91496 3.24663C3.91667 3.1552 3.90042 3.06432 3.86714 2.9792C3.83386 2.89409 3.78421 2.81641 3.72102 2.75062C3.65784 2.68482 3.58236 2.6322 3.49891 2.59577C3.41546 2.55934 3.32568 2.53981 3.23471 2.53831C3.14257 2.53491 3.05069 2.55003 2.96444 2.58278C2.87819 2.61554 2.79931 2.66528 2.73243 2.72907C2.66555 2.79287 2.61202 2.86945 2.57496 2.95432C2.53791 3.03918 2.51809 3.13063 2.51665 3.2233C2.51522 3.31597 2.53221 3.408 2.56661 3.49398C2.60102 3.57997 2.65216 3.65818 2.71703 3.72404C2.78191 3.78989 2.85921 3.84207 2.9444 3.87751C3.0296 3.91295 3.12097 3.93093 3.21317 3.93041C3.304 3.93213 3.39426 3.91578 3.47877 3.88229C3.56328 3.84881 3.64037 3.79885 3.7056 3.7353C3.77082 3.67174 3.8229 3.59585 3.85883 3.51198C3.89476 3.42812 3.91384 3.33794 3.91496 3.24663Z" fill="white"/>
<path d="M14.7055 18.8393V18.6435C14.7055 16.584 14.7047 14.5241 14.7031 12.464C14.7031 12.3451 14.7304 12.2715 14.8386 12.2027C15.1694 11.9991 15.493 11.7835 15.8161 11.5675C16.0742 11.3947 16.3255 11.3933 16.5821 11.5675C16.9452 11.809 17.3107 12.0476 17.6783 12.283C17.8985 12.425 18.0005 12.6199 18 12.886C17.9971 14.6503 17.9971 16.4159 18 18.1825C18 18.5949 17.7501 18.8475 17.3437 18.8485C16.5139 18.8504 15.6842 18.8504 14.8544 18.8485C14.8113 18.8465 14.7701 18.8427 14.7055 18.8393ZM16.5007 14.4888C16.5007 14.4229 16.5055 14.357 16.5007 14.2915C16.4868 14.126 16.3958 14.0283 16.2316 14.0091C16.0674 13.9898 15.9267 14.0865 15.908 14.2497C15.889 14.4155 15.8902 14.5831 15.9114 14.7487C15.923 14.8208 15.9619 14.8855 16.0201 14.9293C16.0782 14.9731 16.1509 14.9925 16.223 14.9835C16.3815 14.9618 16.4844 14.8723 16.4997 14.7049C16.5059 14.6327 16.5007 14.5605 16.5007 14.4888Z" fill="white"/>
<path d="M3.28878 18.8456C2.37636 18.8456 1.48118 18.8514 0.58647 18.8427C0.245151 18.8393 0.00627443 18.5607 0.00579572 18.195C0.00579572 16.7068 0.00579572 15.2188 0.00579572 13.7309C0.00579572 13.4369 0.00579572 13.1429 0.00579572 12.8489C0.00157027 12.7403 0.0261687 12.6325 0.0770645 12.5366C0.12796 12.4407 0.203322 12.3602 0.295416 12.3032C0.678383 12.0501 1.06343 11.7985 1.45054 11.5482C1.6899 11.3928 1.92925 11.3981 2.17148 11.5555C2.51088 11.7787 2.85412 11.9962 3.18969 12.2248C3.21886 12.2458 3.24339 12.2726 3.26176 12.3036C3.28013 12.3345 3.29194 12.369 3.29644 12.4048C3.30155 14.522 3.30267 16.6393 3.2998 18.7566C3.29771 18.7864 3.29404 18.8161 3.28878 18.8456ZM1.50655 14.4802C1.50655 14.5581 1.50033 14.6366 1.50655 14.7131C1.50961 14.7831 1.53872 14.8494 1.5881 14.8988C1.63748 14.9483 1.70354 14.9773 1.77319 14.9801C1.92542 14.997 2.06042 14.9248 2.08339 14.7723C2.11069 14.5844 2.10972 14.3935 2.08052 14.2059C2.05563 14.0529 1.91776 13.9922 1.7641 14.0105C1.6977 14.0141 1.63493 14.0421 1.58765 14.0891C1.54037 14.1361 1.51186 14.1989 1.50751 14.2656C1.5024 14.337 1.50208 14.4087 1.50655 14.4802Z" fill="white"/>
<path d="M10.4914 18.8417H7.50622V18.6493C7.50622 16.5904 7.50526 14.5312 7.50334 12.4717C7.49805 12.4165 7.50925 12.361 7.53552 12.3123C7.56179 12.2637 7.60192 12.2239 7.65078 12.1983C7.98061 11.9933 8.30422 11.7782 8.62783 11.5632C8.88011 11.3962 9.1276 11.3967 9.37988 11.5632C9.71498 11.784 10.0529 11.9962 10.3852 12.2234C10.4161 12.2464 10.442 12.2757 10.4612 12.3093C10.4804 12.343 10.4925 12.3802 10.4967 12.4187C10.5025 14.5196 10.5039 16.6208 10.501 18.7224C10.5005 18.7561 10.4948 18.7912 10.4914 18.8417ZM9.31574 14.5023C9.31429 14.4122 9.30645 14.3223 9.29228 14.2333C9.28098 14.1674 9.24595 14.108 9.19386 14.0663C9.14178 14.0247 9.07627 14.0038 9.00984 14.0076C8.85474 14.0076 8.73458 14.0817 8.71496 14.2372C8.69437 14.4086 8.69437 14.582 8.71496 14.7535C8.73219 14.9022 8.85187 14.9792 8.99452 14.9816C9.06398 14.9875 9.13313 14.967 9.18827 14.9242C9.24341 14.8813 9.28053 14.8192 9.29228 14.7501C9.30564 14.6681 9.31347 14.5853 9.31574 14.5023Z" fill="white"/>
<path d="M6.88341 18.8412H3.91111V18.6454C3.91111 16.5875 3.91015 14.5296 3.90823 12.4716C3.90823 12.3441 3.93935 12.2657 4.05185 12.1959C4.37689 11.9953 4.69523 11.7831 5.01262 11.5704C5.27591 11.3938 5.53201 11.3943 5.79578 11.5704C6.12322 11.7903 6.45784 11.9986 6.78336 12.2214C6.81252 12.2424 6.83702 12.2692 6.85532 12.3002C6.87362 12.3312 6.8853 12.3656 6.88964 12.4014C6.89474 14.5187 6.89602 16.6359 6.89347 18.7532C6.89164 18.7827 6.88829 18.8121 6.88341 18.8412ZM5.70627 14.5134C5.70627 14.4412 5.71057 14.369 5.70627 14.2978C5.70346 14.2209 5.67181 14.148 5.61767 14.0937C5.56354 14.0394 5.49094 14.0077 5.41448 14.005C5.33803 14.0023 5.26341 14.0288 5.20563 14.0792C5.14786 14.1296 5.11122 14.2002 5.10309 14.2766C5.09136 14.4198 5.09136 14.5637 5.10309 14.7068C5.10984 14.7822 5.14416 14.8525 5.19942 14.9039C5.25468 14.9554 5.32696 14.9844 5.40229 14.9854C5.48048 14.9844 5.55538 14.9536 5.61182 14.8992C5.66826 14.8448 5.70202 14.7709 5.70627 14.6924C5.71009 14.6332 5.70627 14.573 5.70627 14.5134Z" fill="white"/>
<path d="M14.0846 18.8403H11.1114V18.6444C11.1114 16.5865 11.1104 14.5284 11.1085 12.4702C11.1085 12.3427 11.1406 12.2638 11.2521 12.1945C11.5772 11.9933 11.8955 11.7816 12.2134 11.5689C12.47 11.3971 12.7218 11.3909 12.9793 11.5627C13.3144 11.784 13.6495 11.9957 13.9822 12.2229C14.0113 12.2438 14.0357 12.2707 14.054 12.3016C14.0722 12.3326 14.0838 12.3671 14.088 12.4028C14.0931 14.5201 14.0944 16.6374 14.0918 18.7546C14.0937 18.7816 14.0909 18.8027 14.0846 18.8403ZM12.9061 14.4922C12.9061 14.4325 12.9099 14.3724 12.9061 14.3132C12.8931 14.1255 12.772 14.0057 12.6002 14.0062C12.4283 14.0067 12.3058 14.1289 12.2986 14.3151C12.2933 14.4402 12.2923 14.5663 12.2986 14.6919C12.3019 14.7705 12.3351 14.8448 12.3915 14.8994C12.4478 14.9541 12.5228 14.9849 12.6011 14.9854C12.6763 14.9834 12.7482 14.9542 12.8035 14.9031C12.8589 14.8519 12.8939 14.7824 12.9022 14.7073C12.9076 14.6357 12.9089 14.5639 12.9061 14.4922Z" fill="white"/>
<path d="M13.0147 10.863L12.424 10.812C12.7246 9.85955 13.0305 8.88994 13.3417 7.90317C13.0975 7.8589 12.9037 7.83147 12.7136 7.7872C11.7768 7.57018 11.1583 6.99082 10.8241 6.09339C10.6853 5.71998 10.9031 5.44521 11.2928 5.51595C12.2531 5.68822 12.9405 6.20839 13.3034 7.13373C13.3316 7.20543 13.3584 7.2781 13.4058 7.40321C13.6673 6.12314 13.7904 4.81842 13.773 3.51177C13.4484 3.41986 13.132 3.35586 12.8347 3.24086C12.0865 2.95214 11.638 2.3747 11.3766 1.63318C11.2684 1.32666 11.5044 1.06007 11.829 1.11301C12.8931 1.28672 13.6002 1.88822 13.9458 2.91701C13.9513 2.9466 13.9613 2.97516 13.9755 3.0017C14.0033 3.03827 14.0401 3.09265 14.0746 3.09361C14.109 3.09457 14.1579 3.04549 14.1751 3.00603C14.2359 2.86937 14.279 2.72501 14.3398 2.58835C14.7228 1.7323 15.402 1.27228 16.3025 1.11686C16.6682 1.05334 16.8889 1.32906 16.7606 1.67938C16.3748 2.73464 15.6117 3.30918 14.514 3.4598C14.4791 3.46461 14.4446 3.47135 14.425 3.47472C14.3612 4.4663 14.2973 5.45083 14.2335 6.4283C14.3029 6.35516 14.3771 6.26566 14.4643 6.1877C14.864 5.80852 15.3479 5.60257 15.8831 5.51403C16.2383 5.4558 16.46 5.73105 16.336 6.07029C15.953 7.12411 15.1919 7.70636 14.0942 7.85072C13.9707 7.86708 13.931 7.91376 13.897 8.02828C13.6232 8.93967 13.3402 9.84816 13.0597 10.7571C13.0468 10.7933 13.0317 10.8286 13.0147 10.863Z" fill="white"/>
<path d="M5.75756 8.92781C5.66182 8.67663 5.58714 8.41774 5.47034 8.17811C5.15391 7.52031 4.81929 6.87118 4.49521 6.21723C4.46603 6.14176 4.44297 6.06403 4.42627 5.98482C4.70009 6.06229 4.92987 6.12003 5.15391 6.19558C5.20465 6.2129 5.24247 6.28749 5.27359 6.34282C5.71501 7.13827 6.08201 7.97321 6.36983 8.83687C6.40574 8.75362 6.43206 8.69684 6.45504 8.63957C6.81934 7.73011 7.50485 7.22341 8.44647 7.04633C8.84524 6.97127 9.0688 7.25084 8.92805 7.63051C8.54509 8.65112 7.80548 9.22568 6.73748 9.38351C6.68482 9.39121 6.63216 9.40083 6.57376 9.41045C6.72647 10.1077 6.87726 10.7982 7.02853 11.4887L6.97492 11.5147C6.77099 11.3819 6.5618 11.2563 6.36696 11.1115C6.31622 11.0735 6.29994 10.9777 6.28271 10.9051C6.18026 10.472 6.0826 10.0427 5.97872 9.59283C5.91362 9.61833 5.87102 9.6318 5.83128 9.65153C5.23864 9.94025 4.62063 10.1255 3.95426 10.1067C3.11365 10.0827 2.4133 9.71697 1.78906 9.18621C1.56407 8.99373 1.62965 8.66364 1.90587 8.53275C3.06578 7.98178 4.20367 7.96061 5.31523 8.67326C5.45071 8.76036 5.58379 8.85034 5.71831 8.93888C5.72214 8.94225 5.72884 8.93647 5.75756 8.92781Z" fill="white"/>
</svg>
