<svg width="18" height="15" viewBox="0 0 18 15" fill="none" xmlns="http://www.w3.org/2000/svg">
<path fill-rule="evenodd" clip-rule="evenodd" d="M16.5994 10.6774V9.12431C16.9882 9.05432 17.3399 8.84921 17.5922 8.54519C17.8446 8.24117 17.9814 7.85779 17.9786 7.46269C17.9774 7.24197 17.9319 7.02375 17.845 6.82088C17.758 6.618 17.6313 6.43459 17.4724 6.28144L11.5886 0.483751C11.2726 0.173237 10.8471 -0.00051917 10.404 1.1653e-06L10.4012 0.00281373C9.95985 0.00212666 9.5358 0.174372 9.21995 0.482626L8.50726 1.18125C8.38513 0.991712 8.21746 0.835783 8.01957 0.727701C7.82168 0.619618 7.59987 0.562823 7.37439 0.562501H6.14251C5.78267 0.563395 5.43787 0.706969 5.18373 0.961734C4.9296 1.2165 4.78689 1.56166 4.78689 1.9215V4.8465L3.31145 6.3C3.09092 6.51755 2.93503 6.79199 2.86111 7.09282C2.78719 7.39365 2.79814 7.70909 2.89273 8.00407C2.98733 8.29905 3.16187 8.56202 3.39696 8.76376C3.63204 8.9655 3.91846 9.09809 4.22439 9.14681V13.5H3.66189V9.57206C3.15944 9.37279 2.74617 8.9983 2.4985 8.51786C2.25084 8.03743 2.18554 7.48355 2.3147 6.95869C2.41411 6.557 2.62237 6.1905 2.91657 5.8995L4.22439 4.61138V3.375C3.20401 3.39356 2.38107 4.24238 2.38107 5.28469H2.33551C1.3967 5.28469 0.629449 6.05869 0.629449 7.01944V7.37494C0.629449 7.72988 0.738574 8.06175 0.916324 8.34131C0.636185 8.50712 0.40425 8.74326 0.243519 9.02634C0.0827884 9.30942 -0.00115529 9.6296 1.20099e-05 9.95513C1.20099e-05 10.98 0.81845 11.8125 1.82589 11.8125H2.81251V13.5C2.19376 13.5 1.68751 14.0063 1.68751 14.625H17.4375C17.4374 14.4639 17.4027 14.3047 17.3357 14.1581C17.2688 14.0116 17.1711 13.8812 17.0494 13.7756C17.1611 13.6039 17.2491 13.4201 17.3132 13.2244C17.4544 12.8069 17.4751 12.3582 17.3731 11.9295C17.271 11.5008 17.0502 11.1096 16.7361 10.8006L16.7321 10.7972C16.6895 10.7555 16.6452 10.7155 16.5994 10.6774ZM7.59939 1.9215V3.09825L5.91189 4.76269V1.9215C5.91166 1.89099 5.91745 1.86074 5.92892 1.83247C5.94039 1.8042 5.95732 1.77846 5.97873 1.75674C6.00015 1.73501 6.02564 1.71771 6.05374 1.70583C6.08184 1.69395 6.112 1.68772 6.14251 1.6875H7.37439C7.40471 1.68748 7.43472 1.69358 7.46262 1.70545C7.49052 1.71731 7.51574 1.7347 7.53675 1.75655C7.55777 1.77841 7.57415 1.80429 7.58491 1.83263C7.59568 1.86098 7.6006 1.89121 7.59939 1.9215ZM5.34939 13.5V7.43625L10.4023 2.45531L15.4688 7.44469V8.4375H15.4744V10.1559C15.1926 10.11 14.9048 10.1155 14.625 10.1723V8.27775C14.6244 8.17112 14.5818 8.06902 14.5064 7.99362C14.431 7.91821 14.3289 7.87559 14.2223 7.875H12.2153C12.1086 7.87559 12.0065 7.91821 11.9311 7.99362C11.8557 8.06902 11.8131 8.17112 11.8125 8.27775V10.2848C11.8131 10.3914 11.8557 10.4935 11.9311 10.5689C12.0065 10.6443 12.1086 10.6869 12.2153 10.6875H13.5748C13.3336 10.8939 13.1354 11.1459 12.9915 11.4289C12.6893 11.5315 12.4214 11.7156 12.2172 11.9609C12.0131 12.2062 11.8806 12.503 11.8344 12.8188C11.8254 12.8582 11.8206 12.8983 11.8198 12.9392C11.8146 12.9844 11.8122 13.0298 11.8125 13.0753V13.0809C11.8129 13.2261 11.8299 13.3658 11.8637 13.5H11.25C11.25 13.1912 11.0464 12.9375 10.7983 12.9375H10.6864V8.50613C10.6864 8.15681 10.4293 7.875 10.1104 7.875H7.88851C7.56957 7.875 7.31251 8.15681 7.31251 8.50613V12.9375H7.2017C6.9542 12.9375 6.75001 13.1912 6.75001 13.5H5.34939ZM12.4538 13.5C12.5432 13.7301 12.7046 13.9236 12.9094 14.0569H15.93V14.0625L15.9401 14.0569C16.2107 13.9116 16.4382 13.6973 16.5994 13.4359C16.6744 13.314 16.7344 13.1843 16.7794 13.0466C16.888 12.729 16.9044 12.387 16.8268 12.0604C16.7491 11.7338 16.5806 11.4359 16.3406 11.2011C16.0088 10.8712 15.5597 10.6866 15.0919 10.6875C14.3888 10.6875 13.7756 11.1049 13.4831 11.7034C13.4542 11.7643 13.4126 11.8184 13.3612 11.8621C13.3098 11.9059 13.2498 11.9382 13.185 11.9571C12.7575 12.0926 12.4425 12.4768 12.3863 12.9336C12.3806 12.9448 12.3806 12.9561 12.3863 12.9673C12.375 13.0011 12.375 13.0404 12.375 13.0804C12.375 13.2289 12.4031 13.3701 12.4538 13.5ZM9.84376 11.25C9.91835 11.25 9.98989 11.2204 10.0426 11.1676C10.0954 11.1149 10.125 11.0433 10.125 10.9688C10.125 10.8942 10.0954 10.8226 10.0426 10.7699C9.98989 10.7171 9.91835 10.6875 9.84376 10.6875C9.76917 10.6875 9.69763 10.7171 9.64489 10.7699C9.59214 10.8226 9.56251 10.8942 9.56251 10.9688C9.56251 11.0433 9.59214 11.1149 9.64489 11.1676C9.69763 11.2204 9.76917 11.25 9.84376 11.25Z" fill="#8C8C8C"/>
</svg>
