<svg width="18" height="18" viewBox="0 0 18 18" fill="none" xmlns="http://www.w3.org/2000/svg">
<path d="M11.1721 9L17.8587 2.31308C18.0471 2.12464 18.0471 1.81929 17.8587 1.63125C16.5408 0.313393 14.4037 0.313393 13.0858 1.63125L8.44478 6.27268L7.44593 5.27384C7.6191 4.83509 7.71433 4.35737 7.71433 3.85714C7.71433 1.72687 5.98744 0 3.85716 0C1.72688 0 0 1.72687 0 3.85714C0 5.98741 1.72688 7.71429 3.85716 7.71429C4.03958 7.71429 4.21837 7.70143 4.39395 7.67692L5.71704 9L4.39395 10.3231C4.21837 10.2986 4.03917 10.2857 3.85716 10.2857C1.72688 10.2857 0 12.0126 0 14.1429C0 16.2731 1.72688 18 3.85716 18C5.98744 18 7.71433 16.2731 7.71433 14.1429C7.71433 13.6426 7.6191 13.1649 7.44593 12.7262L8.44478 11.7273L13.0858 16.3687C14.4037 17.6866 16.5408 17.6866 17.8587 16.3687C18.0471 16.1807 18.0471 15.8754 17.8587 15.6869L11.1721 9ZM3.85716 5.14286C3.14841 5.14286 2.57144 4.56589 2.57144 3.85714C2.57144 3.14839 3.14841 2.57143 3.85716 2.57143C4.56592 2.57143 5.14289 3.14839 5.14289 3.85714C5.14289 4.56589 4.56592 5.14286 3.85716 5.14286ZM3.85716 15.4286C3.14841 15.4286 2.57144 14.8516 2.57144 14.1429C2.57144 13.4341 3.14841 12.8571 3.85716 12.8571C4.56592 12.8571 5.14289 13.4341 5.14289 14.1429C5.14289 14.8516 4.56592 15.4286 3.85716 15.4286Z" fill="#8C8C8C"/>
</svg>
