<svg width="18" height="14" viewBox="0 0 18 14" fill="none" xmlns="http://www.w3.org/2000/svg">
<path fill-rule="evenodd" clip-rule="evenodd" d="M8.84986 2.05574L13.8677 10.7468C13.9951 10.9675 13.9951 11.2201 13.8677 11.4407C13.7402 11.6614 13.5215 11.7876 13.2666 11.7876H4.43308C4.17827 11.7876 3.95952 11.6613 3.83217 11.4407C3.70482 11.22 3.70482 10.9675 3.83217 10.7468L8.84986 2.05574Z" fill="#8C8C8C"/>
<path fill-rule="evenodd" clip-rule="evenodd" d="M1.59564 4.91693L9.9951 11.7866H3.67714C3.34815 11.7866 3.07101 11.5643 2.9997 11.2431L1.59564 4.91693Z" fill="#8C8C8C"/>
<path d="M10.2543 1.42391C10.2479 0.631087 9.59994 -0.00639726 8.80712 4.84524e-05C8.0143 0.00649416 7.37681 0.654429 7.38326 1.44725C7.38971 2.24007 8.03764 2.87756 8.83046 2.87111C9.62329 2.86467 10.2608 2.21673 10.2543 1.42391Z" fill="#8C8C8C"/>
<path fill-rule="evenodd" clip-rule="evenodd" d="M15.9817 4.91693L7.5821 11.7866H13.9001C14.2292 11.7866 14.5062 11.5643 14.5775 11.2431L15.9817 4.91693Z" fill="#8C8C8C"/>
<path d="M17.3529 4.55466C17.3464 3.76184 16.6985 3.12435 15.9057 3.1308C15.1129 3.13724 14.4754 3.78518 14.4818 4.578C14.4883 5.37082 15.1362 6.00831 15.929 6.00186C16.7218 5.99542 17.3593 5.34748 17.3529 4.55466Z" fill="#8C8C8C"/>
<path d="M2.87111 4.53557C2.86467 3.74275 2.21673 3.10527 1.42391 3.11171C0.631087 3.11816 -0.00639726 3.76609 4.84524e-05 4.55892C0.00649416 5.35174 0.654429 5.98922 1.44725 5.98278C2.24007 5.97633 2.87756 5.3284 2.87111 4.53557Z" fill="#8C8C8C"/>
<path fill-rule="evenodd" clip-rule="evenodd" d="M3.45281 12.6335H14.1091C14.3002 12.6335 14.456 12.7894 14.456 12.9805V13.6531C14.456 13.8442 14.3002 14 14.1091 14H3.45281C3.26173 14 3.10589 13.8442 3.10589 13.6531V12.9805C3.10589 12.7894 3.26173 12.6335 3.45281 12.6335Z" fill="#8C8C8C"/>
</svg>
